# xmcd CD database file
#
# Track frame offsets:
#	151
#	80497
#	161355
#
# Disc length: 3173 seconds
#
# Revision: 0
# Processed by: cddbd v1.5.2PL0 Copyright (c) Steve Scherf et al.
# Submitted via: CDex 1.51
#
DISCID=160c6303
DTITLE=Maria Joao - NDR Big-Band - Live 27.11.1994
DYEAR=1994
DGENRE=Jazz
TTITLE0=Varias Dansas
TTITLE1=Lino Passagem
TTITLE2=Coisas Da Terra
EXTD=YEAR: 1994
EXTT0=
EXTT1=
EXTT2=
PLAYORDER=
